<svg version="1" xmlns="http://www.w3.org/2000/svg" width="933.333" height="933.333" viewBox="0 0 700.000000 700.000000"><path d="M277.7 120.6c-.1.1-3.3.4-7.2.7-24.5 2.1-54 12.6-75.3 26.8-35.8 24-59.8 57.9-70.1 98.9-1.7 6.6-3.3 14.2-3.6 16.8-.4 2.6-.8 5.8-1.1 7.2-.7 4-.6 25.8.1 33.5 2.4 25.6 12.7 54.8 26.8 76.3 2.8 4.2 5.4 7.9 5.7 8.2.3.3 2.3 2.7 4.5 5.5 8.4 10.4 20.3 21.6 32.1 30.2 35.6 25.7 82.1 36.6 124.9 29.3 12-2 27.5-6.2 35-9.5 8.6-3.7 9.9-3.9 14-1.7 4.9 2.4 10.5 4.1 16.5 4.8 2.5.3 5.4.7 6.4.8 1 .2 30.3 28.6 65 63.3 57.2 57.1 63.7 63.3 69.6 66.2 27.5 13.2 59.2-5.6 60.5-35.9.3-7.7-1.6-15.5-5.3-22.4-1.9-3.5-20.6-22.9-65.5-67.7l-62.8-62.7-.5-5.4c-.6-6.6-3-15-5.6-20.1l-1.9-3.9 3.5-8.7c11.1-27.4 14.5-57.1 10.2-88.1-2.1-14.4-8.1-34.2-14.6-47.4-4.1-8.6-13.8-24.5-16.4-27.2-.9-.8-1.6-1.8-1.6-2.2 0-1.2-13-15.2-21.1-22.8-10.7-9.9-27.1-20.7-42.4-27.8-7.6-3.6-27.8-10.3-33-11.1-2.2-.4-5.6-1-7.5-1.5-5.3-1.3-15.7-2.2-28-2.4-6.1-.1-11.1-.1-11.3 0zm33.3 19.9c58.2 9.2 105.1 51 120.9 107.5 1.1 4.1 2.3 9.3 2.7 11.5.3 2.2.7 4.2.9 4.6.2.3.7 3.6 1 7.5 1.9 20.4.8 35.5-4 54.4-6.4 25.6-20.5 49.9-40 69.5-17.4 17.6-44.7 32.5-70 38.5-12.5 3-17.7 3.5-36 3.5-19.6 0-30.1-1.7-46.5-7.2-22.7-7.7-40.6-18.8-58-36.3-21.7-21.7-34.4-45.1-41.2-75.7-1.8-8.1-2.2-13.1-2.2-28.8-.1-10.5.2-20.6.5-22.5 5.1-27.3 11.9-44.5 25.4-64 7.6-11 20.1-24.5 28.5-30.9 1.9-1.4 3.7-2.8 4-3.1 1.7-1.9 12.2-8.7 19.2-12.4 28.6-15.4 62.7-21.2 94.8-16.1zm119.1 248.4c-.2 9.2-2.1 15.8-6.7 23.1-7.1 11.4-21.5 19.1-35.4 18.9-9.8-.1-9.9-.8-1.2-7.1 14-10.1 30.3-26.8 38.7-39.6 2.4-3.7 3-4.1 3.8-2.7.5 1 .9 4.2.8 7.4zm131.3 139.9c6 11.6.9 27.4-10.8 33.4-5.5 2.9-16.5 3.1-21.6.4-3.3-1.7-119-116.2-119-117.8 0-.4 1-1 2.2-1.4 9-2.8 23.3-16.1 28.7-26.6l3.4-6.6 57.7 57.7c31.8 31.7 58.5 59.1 59.4 60.9z"/><path d="M285.1 214.9c-3.9 1.1-6.5 5.4-6.5 11.1l-.1 4.9-6.6 2.1c-14.2 4.3-22.9 15.5-22.9 29.4 0 16.4 8.7 25.2 34 34.1 14.3 5.1 20 7.8 23.1 10.9 5.7 5.7 3.7 13.5-4.6 17.6-4 1.9-6.4 2.4-13 2.4-13 0-21.2-4.4-23-12.4-.8-3.8-4.9-7-8.9-7-6.7.1-9.7 5.8-7.2 14.2 3 10.5 11.3 18 24.4 21.8 2.3.7 4.3 1.8 4.4 2.4.1 1.1.4 4.5.6 8.4.3 3.8 4.5 7.2 9 7.2 5.5 0 8.3-3.2 9.1-10.6l.6-5.6 5.5-1.7c15.4-4.8 22.9-13.7 23.8-28.2.4-6.6.1-8.4-2-13.1-5-10.8-14.3-16.9-36.5-24.2-7.9-2.6-16.5-7.1-19.2-9.9-2.6-2.9-3.1-9.1-1-12.5 5.4-8.6 28.1-9.4 36.5-1.3 1.3 1.3 2.9 3.9 3.5 5.9 1.6 5.6 3.3 7.3 7.6 7.9 3.2.4 4.4.1 6.6-1.8 9.1-8.2-2.8-28.2-20-33.6l-5.3-1.7v-4.7c0-6.3-1.5-9.5-5.5-11.4-1.8-.8-3.5-1.5-3.7-1.4-.1.1-1.4.4-2.7.8z"/></svg>